<svg version="1.1" id="Layer_1" xmlns="http://www.w3.org/2000/svg" xmlns:xlink="http://www.w3.org/1999/xlink" x="0px" y="0px"
	 width="100%" viewBox="0 0 158 158" enable-background="new 0 0 158 158" xml:space="preserve">
<path fill="#FDFDFE" opacity="1.000000" stroke="none" 
	d="
M159.000000,102.000000 
	C159.000000,120.986824 159.000000,139.973648 159.000000,158.980225 
	C106.383057,158.980225 53.766098,158.980225 1.074570,158.980225 
	C1.074570,106.419670 1.074570,53.839207 1.074570,1.129371 
	C53.543602,1.129371 106.087624,1.129371 159.000000,1.129371 
	C159.000000,34.019981 159.000000,67.041328 158.742920,100.249519 
	C158.118774,100.817314 157.751709,101.198280 157.384644,101.579239 
	C157.923096,101.719490 158.461548,101.859741 159.000000,102.000000 
M45.068359,90.337059 
	C37.479767,101.586411 36.746037,103.539589 38.499012,105.028145 
	C32.104019,109.035942 30.146769,116.249619 27.186874,123.155464 
	C62.188732,123.264595 97.190582,123.378174 132.192520,123.427017 
	C132.588409,123.427574 132.985474,122.586716 133.151245,121.414307 
	C129.810486,116.218262 126.270584,111.137627 123.176376,105.798683 
	C118.711502,98.094688 114.570061,90.203232 110.148048,81.736755 
	C110.002037,80.305428 109.856033,78.874092 109.694817,77.293716 
	C112.389786,77.124573 114.639236,76.983383 116.888680,76.842201 
	C117.023239,76.431480 117.157791,76.020760 117.292351,75.610031 
	C116.302986,75.082123 115.345406,74.184601 114.318245,74.096291 
	C111.358086,73.841812 108.369865,73.913841 105.210396,73.157967 
	C97.052338,59.093941 88.894279,45.029919 80.511841,30.411421 
	C80.193810,30.429934 79.673195,30.332312 79.586540,30.483463 
	C71.311073,44.919708 63.068634,59.374893 53.939293,73.964935 
	C51.353626,73.964935 48.767960,73.964935 45.606049,73.964935 
	C45.606049,79.771767 45.606049,84.876228 45.068359,90.337059 
M11.255719,75.930794 
	C11.255719,83.163574 11.255719,90.396355 11.255719,98.168587 
	C15.386555,97.874184 18.911243,98.052818 22.223465,97.298500 
	C29.379301,95.668877 32.959625,88.734383 30.562769,81.919594 
	C28.166523,75.106552 19.441437,71.965302 11.255719,75.930794 
M132.641068,93.923019 
	C136.341492,90.279442 143.944107,91.309036 146.515808,95.579063 
	C147.221741,96.751167 148.911804,97.330559 150.150269,98.181931 
	C150.422516,97.791275 150.694778,97.400612 150.967041,97.009949 
	C147.996735,90.165756 144.996536,83.334312 142.070358,76.471298 
	C140.846054,73.599831 138.492340,72.471947 137.035797,75.345345 
	C133.424850,82.468803 130.588867,89.985100 127.441559,97.343582 
	C128.023651,97.713882 128.605743,98.084183 129.187836,98.454491 
	C130.222809,97.194405 131.257782,95.934319 132.641068,93.923019 
z"/>
<path fill="#000000" opacity="1.000000" stroke="none" 
	d="
M159.000000,101.750000 
	C158.461548,101.859741 157.923096,101.719490 157.384644,101.579239 
	C157.751709,101.198280 158.118774,100.817314 158.742920,100.718178 
	C159.000000,101.000000 159.000000,101.500000 159.000000,101.750000 
z"/>
<path fill="#062C52" opacity="1.000000" stroke="none" 
	d="
M133.381973,122.138626 
	C132.985474,122.586716 132.588409,123.427574 132.192520,123.427017 
	C97.190582,123.378174 62.188732,123.264595 27.387241,122.708282 
	C34.865486,118.133324 42.305435,114.262947 49.378479,109.809814 
	C57.444221,104.731674 65.182945,99.134125 73.320847,94.068405 
	C73.876381,97.115143 75.176971,98.410309 78.136650,98.033012 
	C80.257515,97.762657 82.449036,97.856735 84.593376,98.008858 
	C87.217522,98.195015 88.249939,97.033119 88.390747,94.661652 
	C96.330055,99.548996 103.894386,104.360847 111.537605,109.043983 
	C118.776039,113.479080 126.097198,117.779160 133.381973,122.138626 
z"/>
<path fill="#9A1A36" opacity="1.000000" stroke="none" 
	d="
M133.266602,121.776466 
	C126.097198,117.779160 118.776039,113.479080 111.537605,109.043983 
	C103.894386,104.360847 96.330055,99.548996 88.265366,94.506332 
	C87.570892,94.034248 87.312592,93.972115 86.701866,93.895889 
	C84.254471,92.543625 82.129784,91.328354 80.004929,89.637329 
	C80.011368,71.537643 79.997772,53.913647 80.055595,36.289879 
	C80.061417,34.514492 80.499008,32.740524 80.736221,30.965895 
	C88.894279,45.029919 97.052338,59.093941 104.842117,73.553047 
	C102.385445,74.164429 100.297050,74.380737 98.208656,74.597038 
	C98.194405,75.181496 98.180153,75.765953 98.165901,76.350410 
	C100.686226,76.798607 103.206543,77.246803 105.998161,77.743240 
	C105.998161,80.767014 105.997490,83.572563 105.998360,86.378113 
	C105.999237,89.198212 105.849060,92.030991 106.081818,94.831894 
	C106.169479,95.886620 107.145973,96.867477 107.717270,97.882011 
	C108.443405,96.854340 109.703941,95.874382 109.800713,94.790520 
	C110.168091,90.675819 110.158958,86.527504 110.290604,82.391762 
	C114.570061,90.203232 118.711502,98.094688 123.176376,105.798683 
	C126.270584,111.137627 129.810486,116.218262 133.266602,121.776466 
z"/>
<path fill="#DE1C37" opacity="1.000000" stroke="none" 
	d="
M80.624039,30.688658 
	C80.499008,32.740524 80.061417,34.514492 80.055595,36.289879 
	C79.997772,53.913647 80.011368,71.537643 79.682266,89.608643 
	C78.936142,89.985901 78.512520,89.916092 78.094681,89.388550 
	C78.093567,85.282623 78.242111,81.624062 77.999359,77.991638 
	C77.908791,76.636482 76.904564,75.342392 76.316948,74.020454 
	C75.574661,75.382065 74.335052,76.689316 74.179222,78.115036 
	C73.611481,83.309380 73.405891,88.543312 73.063797,93.762321 
	C65.182945,99.134125 57.444221,104.731674 49.378479,109.809814 
	C42.305435,114.262947 34.865486,118.133324 27.222233,122.367989 
	C30.146769,116.249619 32.104019,109.035942 38.499012,105.028145 
	C36.746037,103.539589 37.479767,101.586411 45.419456,90.603439 
	C45.770554,93.114159 45.770554,95.358505 45.770554,98.180557 
	C50.803555,97.911713 54.983433,97.688446 59.163311,97.465172 
	C59.142746,96.733971 59.122181,96.002762 59.101616,95.271561 
	C55.957607,95.067406 52.813599,94.863258 49.613068,94.655434 
	C49.613068,91.963821 49.613068,89.615456 49.613068,87.377579 
	C52.785793,86.997955 55.516392,86.671242 58.246994,86.344528 
	C58.250732,85.756470 58.254471,85.168419 58.258209,84.580368 
	C55.278191,84.182030 52.298172,83.783699 49.417351,83.398621 
	C49.122837,75.942398 55.059719,77.475761 59.169823,76.500244 
	C59.164680,76.051163 59.159534,75.602081 59.154392,75.153000 
	C57.710949,74.711617 56.267509,74.270241 54.824066,73.828857 
	C63.068634,59.374893 71.311073,44.919708 79.586540,30.483463 
	C79.673195,30.332312 80.193810,30.429934 80.624039,30.688658 
z"/>
<path fill="#214B78" opacity="1.000000" stroke="none" 
	d="
M11.338762,75.479584 
	C19.441437,71.965302 28.166523,75.106552 30.562769,81.919594 
	C32.959625,88.734383 29.379301,95.668877 22.223465,97.298500 
	C18.911243,98.052818 15.386555,97.874184 11.255719,98.168587 
	C11.255719,90.396355 11.255719,83.163574 11.338762,75.479584 
M14.933914,89.348473 
	C14.933914,91.129829 14.933914,92.911186 14.933914,94.659676 
	C23.480038,95.080933 27.593678,91.932503 27.360188,85.623611 
	C27.136705,79.585121 22.758663,76.631134 14.933901,77.599869 
	C14.933901,81.153084 14.933901,84.775108 14.933914,89.348473 
z"/>
<path fill="#1B4674" opacity="1.000000" stroke="none" 
	d="
M132.466904,94.298630 
	C131.257782,95.934319 130.222809,97.194405 129.187836,98.454491 
	C128.605743,98.084183 128.023651,97.713882 127.441559,97.343582 
	C130.588867,89.985100 133.424850,82.468803 137.035797,75.345345 
	C138.492340,72.471947 140.846054,73.599831 142.070358,76.471298 
	C144.996536,83.334312 147.996735,90.165756 150.967041,97.009949 
	C150.694778,97.400612 150.422516,97.791275 150.150269,98.181931 
	C148.911804,97.330559 147.221741,96.751167 146.515808,95.579063 
	C143.944107,91.309036 136.341492,90.279442 132.466904,94.298630 
M136.986023,82.691284 
	C136.270111,84.625023 135.554199,86.558769 134.796707,88.604874 
	C137.938934,88.604874 140.464203,88.604874 143.519943,88.604874 
	C142.050003,84.969772 140.780472,81.830292 139.210678,77.948250 
	C138.327957,79.742912 137.775314,80.866531 136.986023,82.691284 
z"/>
<path fill="#113C6C" opacity="1.000000" stroke="none" 
	d="
M54.381680,73.896896 
	C56.267509,74.270241 57.710949,74.711617 59.154392,75.153000 
	C59.159534,75.602081 59.164680,76.051163 59.169823,76.500244 
	C55.059719,77.475761 49.122837,75.942398 49.417351,83.398621 
	C52.298172,83.783699 55.278191,84.182030 58.258209,84.580368 
	C58.254471,85.168419 58.250732,85.756470 58.246994,86.344528 
	C55.516392,86.671242 52.785793,86.997955 49.613068,87.377579 
	C49.613068,89.615456 49.613068,91.963821 49.613068,94.655434 
	C52.813599,94.863258 55.957607,95.067406 59.101616,95.271561 
	C59.122181,96.002762 59.142746,96.733971 59.163311,97.465172 
	C54.983433,97.688446 50.803555,97.911713 45.770554,98.180557 
	C45.770554,95.358505 45.770554,93.114159 45.688301,90.425255 
	C45.606049,84.876228 45.606049,79.771767 45.606049,73.964935 
	C48.767960,73.964935 51.353626,73.964935 54.381680,73.896896 
z"/>
<path fill="#20416F" opacity="1.000000" stroke="none" 
	d="
M110.219330,82.064255 
	C110.158958,86.527504 110.168091,90.675819 109.800713,94.790520 
	C109.703941,95.874382 108.443405,96.854340 107.717270,97.882011 
	C107.145973,96.867477 106.169479,95.886620 106.081818,94.831894 
	C105.849060,92.030991 105.999237,89.198212 105.998360,86.378113 
	C105.997490,83.572563 105.998161,80.767014 105.998161,77.743240 
	C103.206543,77.246803 100.686226,76.798607 98.165901,76.350410 
	C98.180153,75.765953 98.194405,75.181496 98.208656,74.597038 
	C100.297050,74.380737 102.385445,74.164429 104.933250,73.902878 
	C108.369865,73.913841 111.358086,73.841812 114.318245,74.096291 
	C115.345406,74.184601 116.302986,75.082123 117.292351,75.610031 
	C117.157791,76.020760 117.023239,76.431480 116.888680,76.842201 
	C114.639236,76.983383 112.389786,77.124573 109.694817,77.293716 
	C109.856033,78.874092 110.002037,80.305428 110.219330,82.064255 
z"/>
<path fill="#424A71" opacity="1.000000" stroke="none" 
	d="
M73.320847,94.068405 
	C73.405891,88.543312 73.611481,83.309380 74.179222,78.115036 
	C74.335052,76.689316 75.574661,75.382065 76.316948,74.020454 
	C76.904564,75.342392 77.908791,76.636482 77.999359,77.991638 
	C78.242111,81.624062 78.093567,85.282623 78.062943,89.715652 
	C77.866875,90.925003 77.718666,91.354156 77.533577,91.766769 
	C77.515320,91.807442 77.149269,91.748505 77.149048,91.732895 
	C77.104027,88.572906 77.124939,85.411293 77.034157,82.252884 
	C76.969498,80.003418 76.755363,77.758240 76.540283,74.479980 
	C75.524269,75.881516 75.184875,76.132034 75.179977,76.388924 
	C75.100700,80.545059 75.035683,84.701912 75.023285,88.858772 
	C74.996628,97.796173 75.348122,98.177895 84.169266,96.947945 
	C85.235779,96.799240 86.078255,95.043701 87.024567,94.032883 
	C87.312592,93.972115 87.570892,94.034248 87.924850,94.374603 
	C88.249939,97.033119 87.217522,98.195015 84.593376,98.008858 
	C82.449036,97.856735 80.257515,97.762657 78.136650,98.033012 
	C75.176971,98.410309 73.876381,97.115143 73.320847,94.068405 
z"/>
<path fill="#123A68" opacity="1.000000" stroke="none" 
	d="
M86.701859,93.895882 
	C86.078255,95.043701 85.235779,96.799240 84.169266,96.947945 
	C75.348122,98.177895 74.996628,97.796173 75.023285,88.858772 
	C75.035683,84.701912 75.100700,80.545059 75.179977,76.388924 
	C75.184875,76.132034 75.524269,75.881516 76.540283,74.479980 
	C76.755363,77.758240 76.969498,80.003418 77.034157,82.252884 
	C77.124939,85.411293 77.104027,88.572906 77.149048,91.732895 
	C77.149269,91.748505 77.515320,91.807442 77.533577,91.766769 
	C77.718666,91.354156 77.866875,90.925003 78.057167,90.173386 
	C78.512520,89.916092 78.936142,89.985901 79.682426,90.084396 
	C82.129784,91.328354 84.254471,92.543625 86.701859,93.895882 
M78.590805,94.519463 
	C78.590805,94.519463 78.477104,94.586212 78.590805,94.519463 
z"/>
<path fill="#F7F9FA" opacity="1.000000" stroke="none" 
	d="
M14.933908,88.872803 
	C14.933901,84.775108 14.933901,81.153084 14.933901,77.599869 
	C22.758663,76.631134 27.136705,79.585121 27.360188,85.623611 
	C27.593678,91.932503 23.480038,95.080933 14.933914,94.659676 
	C14.933914,92.911186 14.933914,91.129829 14.933908,88.872803 
z"/>
<path fill="#E6EAEF" opacity="1.000000" stroke="none" 
	d="
M137.104340,82.340714 
	C137.775314,80.866531 138.327957,79.742912 139.210678,77.948250 
	C140.780472,81.830292 142.050003,84.969772 143.519943,88.604874 
	C140.464203,88.604874 137.938934,88.604874 134.796707,88.604874 
	C135.554199,86.558769 136.270111,84.625023 137.104340,82.340714 
z"/>
<path fill="#424A71" opacity="1.000000" stroke="none" 
	d="
M78.533951,94.552841 
	C78.477104,94.586212 78.590805,94.519463 78.533951,94.552841 
z"/>
</svg>